<svg data-v-8ebec040="" xmlns="http://www.w3.org/2000/svg" xmlns:xlink="http://www.w3.org/1999/xlink" fill="none" version="1.1" width="16" height="16" viewBox="0 0 16 16" class="item-class"><defs data-v-8ebec040=""><clipPath data-v-8ebec040="" id="master_svg0_2_2099"><rect data-v-8ebec040="" x="0" y="0" width="16" height="16" rx="0"></rect></clipPath></defs><g data-v-8ebec040="" clip-path="url(#master_svg0_2_2099)"><g data-v-8ebec040=""><path data-v-8ebec040="" d="M3.33331298828125,10.666673505859375L3.33331298828125,11.333343505859375C3.33309298828125,12.031143505859376,3.87086298828125,12.611043505859374,4.5666429882812505,12.663343505859375L4.66664298828125,12.666643505859374L5.99998298828125,12.666643505859374C6.36817298828125,12.666643505859374,6.66664298828125,12.965143505859375,6.66664298828125,13.333343505859375C6.66664298828125,13.701543505859375,6.36817298828125,14.000043505859376,5.99998298828125,14.000043505859376L4.66664298828125,14.000043505859376C3.19388298828125,14.000043505859376,1.99997998828125,12.806143505859374,1.99997998828125,11.333343505859375L1.99997998828125,10.666673505859375C1.99997998828125,10.298483505859375,2.29845598828125,10.000013505859375,2.66664298828125,10.000013505859375C3.03483298828125,10.000013505859375,3.33331298828125,10.298483505859375,3.33331298828125,10.666673505859375ZM12.08401298828125,6.876013505859375L14.75061298828125,13.542643505859376C14.83851298828125,13.761943505859374,14.67681298828125,14.000443505859375,14.44061298828125,14.000043505859376L13.72201298828125,14.000043505859376C13.58581298828125,13.999943505859376,13.46331298828125,13.917143505859375,13.41261298828125,13.790643505859375L12.69601298828125,12.000043505859376L9.96931298828125,12.000043505859376L9.253982988281251,13.790643505859375C9.20322298828125,13.917343505859375,9.08041298828125,14.000243505859375,8.943982988281249,14.000043505859376L8.226642988281249,14.000043505859376C7.99076298828125,13.999943505859376,7.82956298828125,13.761643505859375,7.91731298828125,13.542643505859376L10.58398298828125,6.876013505859375C10.63469298828125,6.749563505859375,10.75716298828125,6.666673505859375,10.89331298828125,6.666673505859375L11.77461298828125,6.666673505859375C11.91111298828125,6.666433505859375,12.03391298828125,6.749363505859375,12.08461298828125,6.876013505859375L12.08401298828125,6.876013505859375ZM11.33331298828125,8.590013505859375L10.50198298828125,10.666673505859375L12.16331298828125,10.666673505859375L11.33331298828125,8.590013505859375ZM5.33331298828125,1.666676505859375L5.33331298828125,2.666673505859375L7.66664298828125,2.666673505859375C7.85074298828125,2.666673505859375,7.99998298828125,2.815913505859375,7.99998298828125,3.000013505859375L7.99998298828125,7.000013505859375C7.99998298828125,7.184103505859375,7.85074298828125,7.333343505859375,7.66664298828125,7.333343505859375L5.33331298828125,7.333343505859375L5.33331298828125,9.000013505859375C5.33331298828125,9.184103505859376,5.18407298828125,9.333343505859375,4.99998298828125,9.333343505859375L4.33331298828125,9.333343505859375C4.149222988281251,9.333343505859375,3.99998298828125,9.184103505859376,3.99998298828125,9.000013505859375L3.99998298828125,7.333343505859375L1.66664598828125,7.333343505859375C1.48255098828125,7.333343505859375,1.33331298828125,7.184103505859375,1.33331298828125,7.000013505859375L1.33331298828125,3.000013505859375C1.33331286907225,2.815913505859375,1.48255098828125,2.666673505859375,1.66664598828125,2.666673505859375L3.99998298828125,2.666673505859375L3.99998298828125,1.666676505859375C3.99998298828125,1.482581505859375,4.149222988281251,1.333343505859375,4.33331298828125,1.333343505859375L4.99998298828125,1.333343505859375C5.18407298828125,1.333343267440375,5.33331298828125,1.482581505859375,5.33331298828125,1.666676505859375ZM11.33331298828125,2.000010505859375C12.80611298828125,2.000010505859375,14.00001298828125,3.193913505859375,14.00001298828125,4.666673505859375L14.00001298828125,5.333343505859375C14.00001298828125,5.701533505859375,13.70151298828125,6.000013505859375,13.33331298828125,6.000013505859375C12.96511298828125,6.000013505859375,12.66661298828125,5.701533505859375,12.66661298828125,5.333343505859375L12.66661298828125,4.666673505859375C12.66661298828125,3.930293505859375,12.06971298828125,3.333343505859375,11.33331298828125,3.333343505859375L9.99998298828125,3.333343505859375C9.63179298828125,3.333343505859375,9.33331298828125,3.034863505859375,9.33331298828125,2.666673505859375C9.33331298828125,2.298486505859375,9.63179298828125,2.000010505859375,9.99998298828125,2.000009505859375L11.33331298828125,2.000010505859375ZM3.99998298828125,4.000013505859375L2.66664298828125,4.000013505859375L2.66664298828125,6.000013505859375L3.99998298828125,6.000013505859375L3.99998298828125,4.000013505859375ZM6.66664298828125,4.000013505859375L5.33331298828125,4.000013505859375L5.33331298828125,6.000013505859375L6.66664298828125,6.000013505859375L6.66664298828125,4.000013505859375Z" fill="#3D3D3D" fill-opacity="1"></path></g></g></svg>